<?xml version="1.0" standalone="no"?><!DOCTYPE svg PUBLIC "-//W3C//DTD SVG 1.1//EN" "http://www.w3.org/Graphics/SVG/1.1/DTD/svg11.dtd"><svg t="1563626335940" class="icon" viewBox="0 0 1024 1024" version="1.1" xmlns="http://www.w3.org/2000/svg" p-id="4877" xmlns:xlink="http://www.w3.org/1999/xlink" width="200" height="200"><defs><style type="text/css"></style></defs><path d="M761.297 117.99c0.002 0.178 0.014 0.354 0.014 0.532 0 32.921-27.589 59.608-61.623 59.608s-61.623-26.687-61.623-59.608c0-0.178 0.012-0.354 0.014-0.532H137.63c-32.381 0-58.63 25.391-58.63 56.713v151.783h866V174.703c0-31.322-26.25-56.713-58.63-56.713H761.297z" fill="#F52F57" p-id="4878"></path><path d="M79 331.5V852c0 33.137 26.25 60 58.63 60h499.569c0-34.828 27.589-63.062 61.623-63.062 34.033 0 61.623 28.234 61.623 63.062H886.37c32.381 0 58.63-26.863 58.63-60V331.5H79z" fill="#FFFFFF" p-id="4879"></path><path d="M571.757 541.553h-400c-5.523 0-10-4.477-10-10V423.545c0-5.523 4.477-10 10-10h400c5.523 0 10 4.477 10 10v108.008c0 5.523-4.477 10-10 10z" fill="#7353BA" p-id="4880"></path><path d="M571.757 556.553h-400c-13.785 0-25-11.215-25-25V423.545c0-13.785 11.215-25 25-25h400c13.785 0 25 11.215 25 25v108.008c0 13.785-11.215 25-25 25z m-395-30h390v-98.008h-390v98.008z" fill="#2F195F" p-id="4881"></path><path d="M778.167 622.465v-198.92c0-5.523 4.477-10 10-10h70c5.523 0 10 4.477 10 10v198.92c0 5.523-4.477 10-10 10h-70c-5.522 0-10-4.477-10-10z" fill="#7353BA" p-id="4882"></path><path d="M858.167 647.465h-70c-13.785 0-25-11.215-25-25v-198.92c0-13.785 11.215-25 25-25h70c13.785 0 25 11.215 25 25v198.92c0 13.785-11.215 25-25 25z m-65-30h60v-188.92h-60v188.92z" fill="#2F195F" p-id="4883"></path><path d="M703.333 569.318c8.284 0 15-6.716 15-15v-84.873c0-8.284-6.716-15-15-15s-15 6.716-15 15v84.873c0 8.285 6.716 15 15 15zM688.333 724.064c0 8.284 6.716 15 15 15s15-6.716 15-15v-84.873c0-8.284-6.716-15-15-15s-15 6.716-15 15v84.873zM79 766.803c8.284 0 15-6.716 15-15V729c0-8.284-6.716-15-15-15s-15 6.716-15 15v22.803c0 8.284 6.716 15 15 15z" fill="#2F195F" p-id="4884"></path><path d="M885 97H767.135c-8.284 0-15 6.716-15 15l0.001 0.158c-0.051 25.812-20.558 46.905-46.138 47.919a15 15 0 0 0-2.665-0.25c-0.781 0-1.543 0.078-2.292 0.193-25.062-1.57-44.981-22.422-45.029-47.862l0.001-0.157c0-8.284-6.716-15-15-15H139c-41.355 0-75 33.645-75 75v508c0 8.284 6.716 15 15 15s15-6.716 15-15V346.5h594.333v38.072c0 8.284 6.716 15 15 15s15-6.716 15-15V346.5H930V852c0 24.813-20.187 45-45 45H779.803c-6.054-30.987-30.505-55.455-61.47-61.57v-26.493c0-8.284-6.716-15-15-15s-15 6.716-15 15v26.433c-31.105 6.018-55.689 30.544-61.763 61.629H139c-24.813 0-45-20.187-45-45v-20.924l129.446-0.001c8.285 0 15-6.716 15-15s-6.716-15-15-15L79 801.076c-8.284 0-15 6.716-15 15V852c0 41.355 33.645 75 75 75h501.124c8.284 0 15-6.716 15-15 0-26.502 21.561-48.063 48.063-48.063S751.25 885.498 751.25 912c0 8.284 6.716 15 15 15H885c41.355 0 75-33.645 75-75V172c0-41.355-33.645-75-75-75zM718.333 316.5v-16.801c0-8.284-6.716-15-15-15s-15 6.716-15 15V316.5H94V172c0-24.813 20.187-45 45-45h488.445c5.996 30.816 30.185 55.197 60.888 61.511v26.315c0 8.284 6.716 15 15 15s15-6.716 15-15v-26.014c31.407-5.821 56.277-30.501 62.369-61.813H885c24.813 0 45 20.187 45 45v144.5H718.333z" fill="#2F195F" p-id="4885"></path><path d="M581.757 831.075c8.284 0 15-6.716 15-15s-6.716-15-15-15H273.888c-8.284 0-15 6.716-15 15s6.716 15 15 15h307.869zM778.167 750.579h90c8.284 0 15-6.716 15-15s-6.716-15-15-15h-90c-8.284 0-15 6.716-15 15s6.716 15 15 15zM778.167 831.075h90c8.284 0 15-6.716 15-15s-6.716-15-15-15h-90c-8.284 0-15 6.716-15 15s6.716 15 15 15z" fill="#2F195F" p-id="4886"></path><path d="M352.65 184.826H157.733c-5.523 0-10-4.477-10-10s4.477-10 10-10H352.65c5.523 0 10 4.477 10 10s-4.477 10-10 10zM457.302 184.826h-29.476c-5.523 0-10-4.477-10-10s4.477-10 10-10h29.476c5.523 0 10 4.477 10 10s-4.477 10-10 10z" fill="#FFFFFF" p-id="4887"></path><path d="M225.77 638.965c8.284 0 15-6.716 15-15s-6.716-15-15-15h-64.012c-8.284 0-15 6.716-15 15v127.837c0 8.284 6.716 15 15 15s15-6.716 15-15v-48.579h49.012c8.284 0 15-6.716 15-15s-6.716-15-15-15h-49.012v-34.258h49.012zM353.296 673.223h-64.741c-8.284 0-15 6.716-15 15s6.716 15 15 15h64.741c8.284 0 15-6.716 15-15s-6.716-15-15-15zM480.093 609.305H416.08c-8.284 0-15 6.716-15 15V752.142c0 8.284 6.716 15 15 15h64.013c8.284 0 15-6.716 15-15V624.305c0-8.284-6.716-15-15-15z m-49.012 30h34.013v33.918h-34.013v-33.918z m34.012 97.837H431.08v-33.919h34.013v33.919z" fill="#2F195F" p-id="4888"></path></svg>