<?xml version="1.0" standalone="no"?><!DOCTYPE svg PUBLIC "-//W3C//DTD SVG 1.1//EN" "http://www.w3.org/Graphics/SVG/1.1/DTD/svg11.dtd"><svg t="1563689641792" class="icon" viewBox="0 0 1024 1024" version="1.1" xmlns="http://www.w3.org/2000/svg" p-id="19635" xmlns:xlink="http://www.w3.org/1999/xlink" width="200" height="200"><defs><style type="text/css"></style></defs><path d="M992.01024 0H32.01024A31.985664 31.985664 0 0 0 0 31.98976v576.02048a31.985664 31.985664 0 0 0 32.01024 31.98976h64a32 32 0 0 0 0-64H64v-512h896v512h-31.98976a32 32 0 1 0 0 64h64A31.981568 31.981568 0 0 0 1024 608.01024V31.98976A31.981568 31.981568 0 0 0 992.01024 0zM429.09696 512a45.518848 45.518848 0 0 0 24.53504-7.18848l229.74464-147.37408a44.290048 44.290048 0 0 0 0.06144-74.83392L453.59104 135.18848a45.520896 45.520896 0 0 0-46.34624-1.59744 44.552192 44.552192 0 0 0-23.2448 39.03488v294.74816a44.552192 44.552192 0 0 0 23.2448 39.03488 45.8752 45.8752 0 0 0 21.85216 5.59104z m18.90304-304.37376l175.22688 112.37376-175.22688 112.37376V207.62624zM256 543.98976a96.100352 96.100352 0 0 0-95.98976 96.01024v64H128a32 32 0 0 0 0 64h768a32 32 0 1 0 0-64h-31.98976V640a96 96 0 1 0-192 0v64h-64V640a96 96 0 1 0-192 0v64h-64V640A96.118784 96.118784 0 0 0 256 543.98976z m-31.98976 160.01024V640a32 32 0 0 1 64 0v64h-64z m512-64a32 32 0 0 1 64 0v64h-64V640z m-256 0a32 32 0 0 1 64 0v64h-64V640z m512 320V896a96 96 0 1 0-192 0v64h-64V896a96 96 0 1 0-192 0v64h-64V896a96 96 0 1 0-192 0v64h-64V896a96 96 0 1 0-192 0v64a32 32 0 1 0 0 64h960a32 32 0 0 0 0-64z m-896 0V896a32 32 0 0 1 64 0v64H96.01024z m256 0V896a32 32 0 0 1 64 0v64h-64z m256 0V896a32 32 0 0 1 64 0v64h-64z m256 0V896a32 32 0 0 1 64 0v64h-64z" p-id="19636" fill="#d4237a"></path></svg>