<?xml version="1.0" standalone="no"?><!DOCTYPE svg PUBLIC "-//W3C//DTD SVG 1.1//EN" "http://www.w3.org/Graphics/SVG/1.1/DTD/svg11.dtd"><svg t="1563688460010" class="icon" viewBox="0 0 1024 1024" version="1.1" xmlns="http://www.w3.org/2000/svg" p-id="18338" xmlns:xlink="http://www.w3.org/1999/xlink" width="200" height="200"><defs><style type="text/css"></style></defs><path d="M924.3 240.1c-1.2-0.6-4.7-1.5-6-1.9L301.1 38.9c-37.3-11.7-77.7-8.1-112.5 10.1s-60.8 48.8-72.5 86.1L81.9 243.7c-0.8 2.3-0.2 0.4-0.2 0.4C31.4 268.7 1 320.7 1 380.9v464.7C1 929.3 58.4 992 142.1 992h720.4c83.7 0 162.4-62.7 162.4-146.4V380.9c0.1-63.8-44.8-118.3-100.6-140.8zM217.5 105.7c19.7-10.3 42-14.4 62.8-7.8L679.1 225H153.4l23.4-72.8c6.6-21 21-36.2 40.7-46.5zM961 840c0 48.5-38.6 88-87.1 88H153.5C105 928 66 888.5 66 840V375.7c0-48.5 39-87.7 87.5-87.7H874c48.5 0 87.1 39.2 87.1 87.7V840z" fill="#d4237a" p-id="18339"></path><path d="M732.7 487.8h-576c-17.6 0-32-14.4-32-32s14.4-32 32-32h576c17.6 0 32 14.4 32 32s-14.4 32-32 32zM406.7 608.9h-250c-17.6 0-32-14.4-32-32s14.4-32 32-32h250c17.6 0 32 14.4 32 32s-14.4 32-32 32zM535 868.3h-32c-17.6 0-32-14.4-32-32s14.4-32 32-32h32c17.6 0 32 14.4 32 32s-14.4 32-32 32zM692 868.3h-32c-17.6 0-32-14.4-32-32s14.4-32 32-32h32c17.6 0 32 14.4 32 32 0.1 17.6-14.3 32-32 32zM849.1 868.3h-32c-17.6 0-32-14.4-32-32s14.4-32 32-32h32c17.6 0 32 14.4 32 32s-14.4 32-32 32z" fill="#d4237a" p-id="18340"></path></svg>