<?xml version="1.0" standalone="no"?><!DOCTYPE svg PUBLIC "-//W3C//DTD SVG 1.1//EN" "http://www.w3.org/Graphics/SVG/1.1/DTD/svg11.dtd"><svg t="1563679026569" class="icon" viewBox="0 0 1024 1024" version="1.1" xmlns="http://www.w3.org/2000/svg" p-id="4424" xmlns:xlink="http://www.w3.org/1999/xlink" width="200" height="200"><defs><style type="text/css"></style></defs><path d="M885 912H139c-33.137 0-60-26.863-60-60V172c0-33.137 26.863-60 60-60h746c33.137 0 60 26.863 60 60v680c0 33.137-26.863 60-60 60z" fill="#FFFFFF" p-id="4425"></path><path d="M164 406.167l26.266 53.222L249 467.923l-42.5 41.428 10.033 58.496L164 540.229l-52.533 27.618 10.033-58.496L79 467.923l58.734-8.534zM338 406.167l26.266 53.222L423 467.923l-42.5 41.428 10.033 58.496L338 540.229l-52.533 27.618 10.033-58.496-42.5-41.428 58.734-8.534zM686 406.167l26.266 53.222L771 467.923l-42.5 41.428 10.033 58.496L686 540.229l-52.533 27.618 10.033-58.496-42.5-41.428 58.734-8.534zM512 406.167l26.266 53.222L597 467.923l-42.5 41.428 10.033 58.496L512 540.229l-52.533 27.618 10.033-58.496-42.5-41.428 58.734-8.534z" fill="#F52F57" p-id="4426"></path><path d="M79 639.965h445.509v63.919H79zM78.771 767.802h582.633v63.919H78.771z" fill="#7353BA" p-id="4427"></path><path d="M945 911.649V692.467c0-19.878-16.114-35.991-35.991-35.991h-0.727c-19.129 0-34.765 14.925-35.916 33.764-1.151-18.839-16.787-33.764-35.916-33.764h-0.727c-19.877 0-35.991 16.114-35.991 35.991 0-19.877-16.114-35.991-35.991-35.991h-0.727c-15.993 0-29.544 10.436-34.231 24.867v-82.094c0-28.74-16.113-52.039-35.991-52.039h-0.727c-19.878 0-35.992 23.299-35.992 52.039v240.418c0 39.755 32.228 71.983 71.983 71.983h0.727" fill="#FFFFFF" p-id="4428"></path><path d="M447.723 114.444v221.691c0 7.432-7.82 12.267-14.469 8.946l-114-56.942-112.021 56.804c-6.652 3.373-14.523-1.46-14.523-8.919V112.677" fill="#F52F57" p-id="4429"></path><path d="M79 482.923c-8.284 0-15-6.716-15-15V172c0-41.355 33.645-75 75-75h53.034c8.284 0 15 6.716 15 15s-6.716 15-15 15H139c-24.813 0-45 20.187-45 45v295.923c0 8.285-6.716 15-15 15zM945 867c-8.284 0-15-6.716-15-15V703.884c0-8.284 6.716-15 15-15s15 6.716 15 15V852c0 8.284-6.716 15-15 15z" fill="#2F195F" p-id="4430"></path><path d="M239 274.146c-5.523 0-10-4.477-10-10v-8.362c0-5.523 4.477-10 10-10s10 4.477 10 10v8.362c0 5.522-4.477 10-10 10zM239 231c-5.523 0-10-4.477-10-10v-54.386c0-5.523 4.477-10 10-10s10 4.477 10 10V221c0 5.523-4.477 10-10 10z" fill="#FFFFFF" p-id="4431"></path><path d="M820.036 494.566c-8.172-1.398-15.92 4.084-17.32 12.249l-10.033 58.496a15 15 0 0 0 21.765 15.814L860 557.175l45.553 23.949a14.998 14.998 0 0 0 15.797-1.142 15 15 0 0 0 5.968-14.671l-10.033-58.496c-1.401-8.165-9.151-13.65-17.32-12.249-8.165 1.4-13.648 9.155-12.248 17.32l4.896 28.541-25.631-13.476a15.004 15.004 0 0 0-13.961 0l-25.631 13.476 4.896-28.541c1.399-8.165-4.085-15.919-12.25-17.32zM325.185 466.028L338 440.061l12.815 25.967c2.613 5.294 7.932 8.365 13.462 8.365 2.229 0 4.493-0.499 6.627-1.552 7.429-3.667 10.479-12.661 6.813-20.09l-26.267-53.222a15 15 0 0 0-26.902 0l-26.267 53.222c-3.666 7.429-0.616 16.423 6.813 20.09 7.43 3.664 16.424 0.616 20.091-6.813zM673.185 466.028L686 440.061l12.815 25.967c2.613 5.294 7.933 8.365 13.463 8.365 2.229 0 4.492-0.499 6.627-1.552 7.429-3.667 10.479-12.661 6.813-20.09l-26.267-53.222a15 15 0 0 0-26.902 0l-26.267 53.222c-3.666 7.429-0.616 16.423 6.813 20.09 7.429 3.664 16.422 0.615 20.09-6.813zM472.036 494.566c-8.171-1.398-15.919 4.084-17.32 12.249l-10.033 58.496a15 15 0 0 0 21.764 15.814L512 557.175l45.553 23.949a14.998 14.998 0 0 0 15.797-1.142 15 15 0 0 0 5.968-14.671l-10.033-58.496c-1.401-8.165-9.151-13.65-17.32-12.249-8.165 1.4-13.648 9.155-12.248 17.32l4.896 28.541-25.631-13.476a15.002 15.002 0 0 0-13.96 0l-25.631 13.476 4.895-28.541c1.399-8.165-4.085-15.919-12.25-17.32z" fill="#2F195F" p-id="4432"></path><path d="M945.019 482.925c7.329 0 13.74-5.378 14.825-12.845 0.132-0.909 0.167-1.808 0.136-2.695 0.004-0.137 0.021-0.271 0.021-0.409V172c0-41.355-33.645-75-75-75H325.047c-8.284 0-15 6.716-15 15s6.716 15 15 15h107.675v201.048L325.957 274.72a15.004 15.004 0 0 0-13.487 0.041l-104.759 53.123V112.677c0-8.284-6.716-15-15-15s-15 6.716-15 15v223.348c0 8.757 4.455 16.721 11.917 21.303 7.461 4.583 16.578 4.954 24.39 0.994l105.287-53.391L426.552 358.5a25.005 25.005 0 0 0 11.186 2.657c4.555 0 9.091-1.261 13.133-3.759 7.421-4.589 11.852-12.538 11.852-21.264V127H885c24.813 0 45 20.187 45 45v278.586l-33.772-4.907-22.776-46.15a15 15 0 0 0-26.902 0l-22.776 46.15-50.817 7.384c-4.397-0.576-9.004 0.783-12.425 4.119l-42.5 41.427a14.997 14.997 0 0 0-4.314 13.277l4.896 28.541-25.631-13.476a15.004 15.004 0 0 0-13.961 0l-25.631 13.476 4.896-28.541a14.997 14.997 0 0 0-4.314-13.277l-42.5-41.427c-3.42-3.335-8.026-4.694-12.422-4.119l-50.82-7.384-22.776-46.15a15 15 0 0 0-26.902 0l-22.776 46.15-50.817 7.384c-4.397-0.576-9.004 0.783-12.426 4.119l-42.5 41.427a15.002 15.002 0 0 0-4.314 13.277l4.895 28.541-25.631-13.476a15.002 15.002 0 0 0-13.96 0l-25.631 13.476 4.895-28.541a15.002 15.002 0 0 0-4.314-13.277l-42.5-41.427c-3.422-3.336-8.029-4.695-12.427-4.119l-50.816-7.383-22.776-46.15a15 15 0 0 0-26.902 0l-22.776 46.15-50.929 7.4c-8.198 1.191-13.878 8.803-12.688 17.001 1.19 8.198 8.8 13.875 17.001 12.688l58.733-8.534a14.998 14.998 0 0 0 11.294-8.206L164 440.061l12.815 25.967a15.002 15.002 0 0 0 11.294 8.206l28.656 4.164-20.736 20.212a15.002 15.002 0 0 0-4.314 13.277l4.895 28.541-25.631-13.476a15.002 15.002 0 0 0-13.96 0l-25.631 13.476 4.895-28.541c1.4-8.165-4.083-15.919-12.249-17.32-8.165-1.398-15.919 4.083-17.32 12.249l-10.033 58.496a15.003 15.003 0 0 0 5.967 14.672 15.002 15.002 0 0 0 15.797 1.142L164 557.175l45.553 23.949a14.995 14.995 0 0 0 15.797-1.141 15 15 0 0 0 5.967-14.672l-8.7-50.723L251 486.921l28.383 27.667-8.7 50.724a15.002 15.002 0 0 0 21.764 15.813L338 557.175l45.553 23.949a14.995 14.995 0 0 0 15.797-1.141 14.999 14.999 0 0 0 5.967-14.671l-8.7-50.724 32.662-31.838 58.611-8.516a15 15 0 0 0 11.294-8.206L512 440.061l12.815 25.967a15.002 15.002 0 0 0 11.294 8.206l58.612 8.517 32.661 31.837-8.7 50.724a15 15 0 0 0 21.765 15.814l2.759-1.451c-1.385 6.172-2.135 12.736-2.135 19.576v153.553H94v-33.919h430.509c8.284 0 15-6.716 15-15v-63.918c0-8.284-6.716-15-15-15H79c-8.284 0-15 6.716-15 15v125.31a15.03 15.03 0 0 0-0.229 2.527v63.919c0 0.863 0.089 1.704 0.229 2.527V852c0 41.355 33.645 75 75 75h671.714c8.284 0 15-6.716 15-15s-6.716-15-15-15h-78.731a15.008 15.008 0 0 0-3.201-0.351h-0.727c-31.421 0-56.983-25.563-56.983-56.983V599.249c0-21.199 11.083-37.039 20.992-37.039h0.727c9.909 0 20.991 15.84 20.991 37.039v82.094a15 15 0 0 0 29.266 4.633 20.933 20.933 0 0 1 19.964-14.501h0.728c11.574 0 20.991 9.417 20.991 20.991 0 8.284 6.716 15 15 15s15-6.716 15-15c0-11.574 9.417-20.991 20.991-20.991h0.728c11.07 0 20.27 8.645 20.944 19.68 0.483 7.914 7.043 14.085 14.972 14.085s14.488-6.171 14.972-14.085c0.675-11.035 9.874-19.68 20.944-19.68h0.728c11.574 0 20.991 9.417 20.991 20.991v219.183c0 8.284 6.716 15 15 15s15-6.716 15-15V692.467c0-28.116-22.875-50.991-50.991-50.991h-0.728c-13.943 0-26.668 5.65-35.916 14.83-9.248-9.18-21.973-14.83-35.916-14.83h-0.728c-14.034 0-26.762 5.698-35.991 14.903-9.229-9.205-21.957-14.903-35.991-14.903h-0.728a51.067 51.067 0 0 0-19.23 3.738v-45.965c0-5.847-0.543-11.496-1.566-16.868a14.97 14.97 0 0 0 5.134-2.399 15 15 0 0 0 5.968-14.671l-8.7-50.724 32.661-31.837 58.612-8.517a15.002 15.002 0 0 0 11.294-8.206L860 440.061l12.815 25.967a15.002 15.002 0 0 0 11.294 8.206l58.733 8.534c0.732 0.106 1.459 0.157 2.177 0.157zM641.071 782.802v33.919H94v-33.919h547.071z m-131.562-93.919H94v-33.918h415.509v33.918zM139 897c-24.813 0-45-20.187-45-45v-5.279h547.359c1.547 19.178 9.341 36.617 21.341 50.279H139z" fill="#2F195F" p-id="4433"></path><path d="M885 897h-25c-8.284 0-15 6.716-15 15s6.716 15 15 15h25c8.284 0 15-6.716 15-15s-6.716-15-15-15z" fill="#2F195F" p-id="4434"></path></svg>