<?xml version="1.0" standalone="no"?><!DOCTYPE svg PUBLIC "-//W3C//DTD SVG 1.1//EN" "http://www.w3.org/Graphics/SVG/1.1/DTD/svg11.dtd"><svg t="1563688288069" class="icon" viewBox="0 0 1024 1024" version="1.1" xmlns="http://www.w3.org/2000/svg" p-id="18167" xmlns:xlink="http://www.w3.org/1999/xlink" width="200" height="200"><defs><style type="text/css"></style></defs><path d="M232.5 82.563h559V945h-559z" fill="#FFFFFF" p-id="18168"></path><path d="M232.5 945H172c-33.137 0-60-26.863-60-60V139c0-33.137 26.863-60 60-60h60.5v866zM856.418 946.781c33.137 0 60-26.863 60-60v-746c0-33.137-26.863-60-60-60h-60.5v805.5c0 33.414 27.087 60.5 60.5 60.5z" fill="#F52F57" p-id="18169"></path><path d="M674.037 425.444H349.963c-16.569 0-30-13.431-30-30V195.019c0-16.569 13.431-30 30-30h324.075c16.569 0 30 13.431 30 30v200.425c-0.001 16.568-13.432 30-30.001 30z" fill="#7353BA" p-id="18170"></path><path d="M461.88 254.88v80.702c0 16.019 17.893 25.538 31.177 16.585l60.239-40.596c11.804-7.955 11.755-25.345-0.093-33.233l-60.239-40.107c-13.292-8.848-31.084 0.681-31.084 16.649z" fill="#F52F57" p-id="18171"></path><path d="M481.941 370.616h-0.002c-19.331-0.001-35.058-15.717-35.058-35.034V254.88c0-19.318 15.727-35.034 35.057-35.034 6.854 0 13.542 2.04 19.34 5.9l60.239 40.107a34.941 34.941 0 0 1 15.603 29.035 34.94 34.94 0 0 1-15.439 29.123l-60.24 40.596c-5.835 3.932-12.578 6.009-19.5 6.009z m-0.003-120.769c-2.1 0-5.057 1.562-5.057 5.034v80.702c0 3.472 2.959 5.034 5.06 5.034 0.953 0 1.847-0.29 2.733-0.887l60.24-40.596c1.926-1.298 2.208-3.164 2.206-4.16-0.003-0.997-0.297-2.861-2.229-4.148l-60.239-40.107c-0.881-0.587-1.769-0.872-2.714-0.872zM703.333 930H172c-24.813 0-45-20.187-45-45v-34.189h65.037c8.284 0 15-6.716 15-15s-6.716-15-15-15H127v-78.116h90.5v143.271c0 8.284 6.716 15 15 15s15-6.716 15-15V82.563c0-0.604-0.046-1.197-0.115-1.783 0.069-0.585 0.115-1.176 0.115-1.78 0-8.284-6.716-15-15-15H172c-41.355 0-75 33.645-75 75v746c0 41.355 33.645 75 75 75h531.333c8.284 0 15-6.716 15-15s-6.716-15-15-15zM217.5 496.463H127v-78.116h65.037c8.284 0 15-6.716 15-15s-6.716-15-15-15H127v-78.116h90.5v186.232zM127 712.694v-78.115h65.037c8.284 0 15-6.716 15-15s-6.716-15-15-15H127v-78.116h90.5v186.231H127zM172 94h45.5v186.231H127v-78.116h65.037c8.284 0 15-6.716 15-15s-6.716-15-15-15H127V139c0-24.813 20.187-45 45-45z" fill="#2F195F" p-id="18172"></path><path d="M386 150.019c-8.284 0-15 6.716-15 15s6.716 15 15 15h8c8.284 0 15-6.716 15-15s-6.716-15-15-15h-8z" fill="#2F195F" p-id="18173"></path><path d="M852 64H380.062c-41.355 0-75 33.645-75 75l-0.099 256.444c0 24.813 20.187 45 45 45h324.074c24.813 0 45-20.187 45-45V195.019c0-24.813-20.187-45-45-45H445c-8.284 0-15 6.716-15 15s6.716 15 15 15h229.037c8.271 0 15 6.729 15 15v200.425c0 8.271-6.729 15-15 15H349.963c-8.271 0-15-6.729-15-15V236.522c0.061-0.551 0.099-1.108 0.099-1.676V139c0-24.813 20.187-45 45-45H776.5v697.5c0 8.284 6.716 15 15 15s15-6.716 15-15V634.579H897v78.115h-64.838c-8.284 0-15 6.716-15 15s6.716 15 15 15H897v78.116H791.499a15.001 15.001 0 0 0-15 15l0.001 48.939c0 41.493 33.757 75.25 75.25 75.25S927 926.243 927 884.75V139c0-41.355-33.645-75-75-75z m-45.5 138.116H897v78.116h-64.838c-8.284 0-15 6.716-15 15s6.716 15 15 15H897v78.116h-90.5V202.116zM852 94c24.813 0 45 20.187 45 45v33.116h-90.5V94H852z m-45.5 510.579V418.347H897v78.116h-64.838c-8.284 0-15 6.716-15 15s6.716 15 15 15H897v78.116h-90.5zM851.75 930c-24.951 0-45.25-20.299-45.25-45.25l-0.001-33.939H897v33.939c0 24.951-20.299 45.25-45.25 45.25z" fill="#2F195F" p-id="18174"></path><path d="M321.811 512.032h384.605v63.919H321.811z" fill="#F52F57" p-id="18175"></path><path d="M706.416 590.951H321.812c-8.284 0-15-6.716-15-15v-63.919c0-8.284 6.716-15 15-15h384.604c8.284 0 15 6.716 15 15v63.919c0 8.284-6.716 15-15 15z m-369.604-30h354.604v-33.919H336.812v33.919z" fill="#2F195F" p-id="18176"></path><path d="M407.667 672.587h298.75c8.284 0 15-6.716 15-15s-6.716-15-15-15h-298.75c-8.284 0-15 6.716-15 15s6.715 15 15 15zM321.812 672.587H345c8.284 0 15-6.716 15-15s-6.716-15-15-15h-23.188c-8.284 0-15 6.716-15 15s6.715 15 15 15zM706.416 712.38H321.812c-8.284 0-15 6.716-15 15s6.716 15 15 15h384.604c8.284 0 15-6.716 15-15s-6.716-15-15-15zM706.416 782.173H675.12c-8.284 0-15 6.716-15 15s6.716 15 15 15h31.296c8.284 0 15-6.716 15-15s-6.716-15-15-15zM321.812 812.173h293.855c8.284 0 15-6.716 15-15s-6.716-15-15-15H321.812c-8.284 0-15 6.716-15 15s6.715 15 15 15zM706.416 851.966H407.667c-8.284 0-15 6.716-15 15s6.716 15 15 15h298.749c8.284 0 15-6.716 15-15s-6.716-15-15-15zM345 851.966h-23.189c-8.284 0-15 6.716-15 15s6.716 15 15 15H345c8.284 0 15-6.716 15-15s-6.715-15-15-15z" fill="#2F195F" p-id="18177"></path></svg>